<svg width="20" height="20" viewBox="0 0 20 20" fill="none" xmlns="http://www.w3.org/2000/svg">
<g id="Group 427319706">
<path id="Vector" d="M15.491 10.6249L11.608 14.5079C11.4908 14.6251 11.4249 14.7841 11.4249 14.9499C11.4249 15.1157 11.4908 15.2747 11.608 15.3919C11.7252 15.5091 11.8842 15.575 12.05 15.575C12.2158 15.575 12.3748 15.5091 12.492 15.3919L17.372 10.5119C17.5079 10.3759 17.5842 10.1916 17.5842 9.99939C17.5842 9.80718 17.5079 9.62284 17.372 9.48689L12.492 4.60789C12.3748 4.49066 12.2158 4.4248 12.05 4.4248C11.8842 4.4248 11.7252 4.49066 11.608 4.60789C11.4908 4.72511 11.4249 4.8841 11.4249 5.04989C11.4249 5.21567 11.4908 5.37466 11.608 5.49189L15.491 9.37489H3C2.91792 9.37489 2.83665 9.39105 2.76082 9.42246C2.68499 9.45387 2.61609 9.49991 2.55806 9.55795C2.50002 9.61598 2.45398 9.68488 2.42258 9.76071C2.39117 9.83654 2.375 9.91781 2.375 9.99989C2.375 10.082 2.39117 10.1632 2.42258 10.2391C2.45398 10.3149 2.50002 10.3838 2.55806 10.4418C2.61609 10.4999 2.68499 10.5459 2.76082 10.5773C2.83665 10.6087 2.91792 10.6249 3 10.6249H15.491Z" fill="white"/>
</g>
</svg>
