<svg width="20" height="20" viewBox="0 0 20 20" fill="none" xmlns="http://www.w3.org/2000/svg">
    <g id="Group 427319706">
        <path id="Vector" d="M4.50903 9.3751L8.39203 5.4921C8.50925 5.37487 8.57511 5.21588 8.57511 5.0501C8.57511 4.88432 8.50925 4.72533 8.39203 4.6081C8.2748 4.49088 8.11581 4.42502 7.95003 4.42502C7.78425 4.42502 7.62526 4.49088 7.50803 4.6081L2.62803 9.4881C2.49212 9.62405 2.41577 9.80839 2.41577 10.0006C2.41577 10.1928 2.49212 10.3771 2.62803 10.5131L7.50803 15.3921C7.62526 15.5093 7.78425 15.5752 7.95003 15.5752C8.11581 15.5752 8.2748 15.5093 8.39203 15.3921C8.50925 15.2749 8.57511 15.1159 8.57511 14.9501C8.57511 14.7843 8.50925 14.6253 8.39203 14.5081L4.50903 10.6251H17C17.0821 10.6251 17.1633 10.609 17.2392 10.5776C17.315 10.5462 17.3839 10.5001 17.4419 10.4421C17.5 10.3841 17.546 10.3152 17.5774 10.2394C17.6088 10.1635 17.625 10.0823 17.625 10.0002C17.625 9.91811 17.6088 9.83684 17.5774 9.76101C17.546 9.68518 17.5 9.61628 17.4419 9.55825C17.3839 9.50021 17.315 9.45417 17.2392 9.42276C17.1633 9.39136 17.0821 9.37519 17 9.37519H4.50903Z" fill="white"/>
    </g>
</svg>
