<svg width="24" height="24" viewBox="0 0 24 24" fill="none" xmlns="http://www.w3.org/2000/svg">
<path d="M15.6911 8.20726C15.4925 8.04108 15.2212 7.97069 14.9486 8.01119L10.2821 8.71834C9.75046 8.79869 9.33325 9.27055 9.33325 9.79256V14.3161C9.08559 14.1541 8.79601 14.0681 8.50011 14.0686C7.67146 14.0689 7 14.7249 7 15.5346C7 16.344 7.67179 17 8.50011 17C9.32843 17 9.99989 16.344 9.99989 15.5343V11.3746L15.3334 10.5666V13.4819C15.0856 13.3199 14.7959 13.2339 14.4999 13.2344C13.6716 13.2344 13.0001 13.8908 13.0001 14.7002C13.0001 15.5095 13.6716 16.1659 14.4999 16.1659C15.3285 16.1659 16 15.5095 16 14.7002V8.88323C16 8.61805 15.8875 8.37151 15.6911 8.20726ZM8.50011 16.3488C8.04046 16.3488 7.66664 15.9836 7.66664 15.5346C7.66664 15.0852 8.04046 14.7204 8.50011 14.7204C8.95975 14.7204 9.33325 15.0852 9.33325 15.5346C9.33325 15.9836 8.95975 16.3488 8.50011 16.3488ZM9.99989 10.7151V9.79256C9.99989 9.59423 10.1799 9.39302 10.3843 9.36184L15.0511 8.65469C15.1337 8.64248 15.2064 8.65919 15.2569 8.70194C15.307 8.74373 15.3334 8.80641 15.3334 8.88323V9.90699L9.99989 10.7151ZM14.4999 15.514C14.0402 15.514 13.6667 15.1489 13.6667 14.6998C13.6667 14.2508 14.0402 13.8857 14.4999 13.8857C14.9595 13.8857 15.3334 14.2508 15.3334 14.6998C15.3334 15.1489 14.9595 15.514 14.4999 15.514Z" fill="currentColor" stroke="currentColor" stroke-width="0.3"/>
<path d="M21.4068 22.1887H2.9834V1.70898H17.588L21.4072 6.41746V22.1887H21.4068ZM4.39668 20.7756H19.9938V6.91834L16.9142 3.12202H4.39668V20.7756Z" fill="currentColor"/>
</svg>
