<svg width="18" height="18" viewBox="0 0 18 18" fill="none" xmlns="http://www.w3.org/2000/svg">
<g id="Frame 427318955">
<path id="Union" fill-rule="evenodd" clip-rule="evenodd" d="M6.21367 1.68102L15.0723 4.05468C16.0127 4.30668 16.5709 5.27335 16.3189 6.21381L13.9452 15.0724C13.6932 16.0129 12.7265 16.571 11.7861 16.319L2.92745 13.9453C1.987 13.6933 1.42889 12.7267 1.68088 11.7862L4.05454 2.9276C4.30654 1.98714 5.27321 1.42903 6.21367 1.68102ZM3.08861 2.66878C3.48355 1.19485 4.99856 0.32016 6.47249 0.715097L15.3311 3.08876C16.805 3.48369 17.6797 4.99871 17.2848 6.47263L14.9111 15.3312C14.5162 16.8052 13.0012 17.6799 11.5273 17.2849L2.66864 14.9113C1.19471 14.5163 0.320018 13.0013 0.714955 11.5274L3.08861 2.66878ZM12.2985 7.81335C12.8319 7.95629 13.3803 7.63971 13.5232 7.10624C13.6661 6.57277 13.3496 6.02444 12.8161 5.88149C12.2826 5.73855 11.7343 6.05514 11.5914 6.5886C11.4484 7.12207 11.765 7.6704 12.2985 7.81335ZM7.84458 5.58478C7.70164 6.11825 7.15331 6.43483 6.61984 6.29189C6.08637 6.14895 5.76979 5.60061 5.91273 5.06715C6.05567 4.53368 6.60401 4.2171 7.13748 4.36004C7.67094 4.50298 7.98753 5.05132 7.84458 5.58478ZM8.69829 9.8917C9.23176 10.0346 9.7801 9.71806 9.92304 9.1846C10.066 8.65113 9.7494 8.10279 9.21593 7.95985C8.68246 7.81691 8.13413 8.13349 7.99119 8.66696C7.84824 9.20043 8.16483 9.74876 8.69829 9.8917ZM6.32304 11.2633C6.1801 11.7967 5.63176 12.1133 5.0983 11.9704C4.56483 11.8274 4.24825 11.2791 4.39119 10.7456C4.53413 10.2121 5.08247 9.89557 5.61594 10.0385C6.1494 10.1815 6.46599 10.7298 6.32304 11.2633ZM10.7769 13.4919C11.3104 13.6349 11.8587 13.3183 12.0016 12.7848C12.1446 12.2514 11.828 11.703 11.2945 11.5601C10.7611 11.4171 10.2127 11.7337 10.0698 12.2672C9.92684 12.8007 10.2434 13.349 10.7769 13.4919Z" fill="#212121"/>
</g>
</svg>
