<svg width="26" height="26" viewBox="0 0 26 26" fill="none" xmlns="http://www.w3.org/2000/svg">
  <circle cx="13" cy="13" r="13" fill="#585561"/>
  <path d="M7.59086 10.1665C7.68324 9.98344 7.80462 9.75087 7.89449 9.60731C8.99612 7.84767 10.9295 6.68061 13.1305 6.68061C16.5576 6.68061 19.3358 9.50992 19.3358 13.0001C19.3358 16.4902 16.5576 19.3195 13.1305 19.3195C10.9023 19.3195 8.94832 18.1234 7.85399 16.3272C7.70457 16.082 7.65399 15.9606 7.65399 15.9606C7.54205 15.7377 7.27163 15.6363 7.04507 15.731C6.81692 15.8265 6.72214 16.0821 6.82984 16.3034C6.82984 16.3034 6.90149 16.4692 7.0603 16.7362C8.303 18.8258 10.5566 20.2223 13.1305 20.2223C17.0472 20.2223 20.2222 16.9888 20.2222 13.0001C20.2222 9.01133 17.0472 5.77783 13.1305 5.77783C10.593 5.77783 8.36676 7.13511 7.11358 9.1757C7.05018 9.27894 6.97222 9.42346 6.89775 9.56749L6.65826 8.0276C6.62032 7.78364 6.39526 7.61722 6.15179 7.65649C5.91002 7.69549 5.74543 7.92908 5.78315 8.17161L6.13017 10.4029C6.20669 10.8949 6.65689 11.2311 7.14343 11.1527L9.33443 10.7993C9.57548 10.7604 9.74012 10.531 9.70156 10.283C9.66327 10.0368 9.4348 9.86903 9.19849 9.90715L7.59086 10.1665ZM13.1305 8.93548C13.1305 8.68733 12.9338 8.48617 12.6873 8.48617C12.4425 8.48617 12.2441 8.69189 12.2441 8.93867V12.9962C12.2441 13.4969 12.6438 13.9028 13.1343 13.9028H17.1185C17.3639 13.9028 17.5628 13.7025 17.5628 13.4514C17.5628 13.2021 17.3609 13.0001 17.1216 13.0001H13.5717C13.3281 13.0001 13.1305 12.7944 13.1305 12.5507V8.93548Z" fill="#E0E0E0"/>
  <line x1="5" y1="5" x2="21" y2="21" stroke="#E0E0E0" stroke-width="2"/>
</svg>