<svg width="198" height="68" viewBox="0 0 198 68" fill="none" xmlns="http://www.w3.org/2000/svg">
<path d="M7.50373 0.773682H0V8.27741H7.50373V0.773682Z" fill="#00C7FD"/>
<path d="M7.31221 39.8195V12.8238H0.19873V39.8195H7.31221ZM54.4502 40.0933V33.4728C53.5892 33.4824 52.7287 33.4275 51.8759 33.3085C51.2551 33.244 50.6705 32.9852 50.2053 32.5691C49.7969 32.1231 49.5384 31.5605 49.4659 30.9601C49.3436 30.0962 49.2887 29.2241 49.3016 28.3516V18.9103H54.4502V12.8238H49.3016V2.30765H42.1881V28.4064C42.1531 30.2779 42.3439 32.1468 42.7564 33.9726C43.0614 35.3126 43.7157 36.548 44.6529 37.5533C45.6165 38.4984 46.8147 39.1696 48.124 39.4977C49.8975 39.9334 51.7206 40.1337 53.5464 40.0933H54.4502ZM95.2072 39.8195V0.226318H88.0937V39.8195H95.2072ZM35.328 15.4871C33.363 13.3579 30.5765 12.2761 27.0574 12.2761C25.4414 12.2653 23.8451 12.631 22.395 13.3442C21.0119 14.0212 19.8031 15.0074 18.8622 16.2265L18.472 16.7263V12.8238H11.4543V39.8195H18.5267V26.4346C18.5267 26.2703 18.5267 26.1128 18.5267 25.9485C18.5952 23.429 19.2114 21.5462 20.4027 20.3549C20.9814 19.7405 21.681 19.2524 22.4574 18.9213C23.2339 18.5902 24.0704 18.4233 24.9145 18.4311C26.9684 18.4311 28.5294 19.061 29.5701 20.3002C30.6108 21.5394 31.1037 23.2579 31.1174 25.4761V25.5446V39.8195H38.3062V24.4971C38.3062 20.6493 37.3066 17.6164 35.328 15.4871ZM84.3898 26.2703C84.4022 24.3956 84.0535 22.536 83.3628 20.7931C82.7016 19.1407 81.7301 17.6301 80.501 16.3429C79.2552 15.0514 77.7566 14.0306 76.0987 13.3442C74.3024 12.6108 72.3767 12.2476 70.4367 12.2761C68.5543 12.2673 66.6901 12.6448 64.9595 13.3852C61.5959 14.8144 58.9249 17.5026 57.5174 20.8753C56.7751 22.6053 56.3975 24.4699 56.4083 26.3525C56.3988 28.2295 56.757 30.0902 57.4626 31.8296C58.1326 33.5056 59.1359 35.0281 60.4116 36.305C61.6873 37.5818 63.2088 38.5865 64.8842 39.2581C66.7191 40.0105 68.6863 40.3877 70.6694 40.3672C72.9387 40.4291 75.1934 39.9858 77.2703 39.0693C79.3472 38.1528 81.1943 36.7861 82.6782 35.068L77.5639 31.145C76.6899 32.0898 75.6314 32.8453 74.4537 33.3647C73.2761 33.884 72.0044 34.1561 70.7174 34.1643C68.9767 34.245 67.256 33.7651 65.8085 32.795C64.5643 31.8833 63.6644 30.5781 63.2547 29.091L63.1794 28.8377H84.4035L84.3898 26.2703ZM63.241 23.7919C63.241 21.8132 65.5072 18.3626 70.3956 18.3626C75.284 18.3626 77.5639 21.7859 77.5639 23.785L63.241 23.7919Z" fill="white"/>
<path d="M103.3 1.58168C103.032 0.969217 102.543 0.480268 101.93 0.212385C101.61 0.0687241 101.262 -0.00368654 100.91 0.000144454C100.557 -0.0029587 100.207 0.0693988 99.8832 0.212385C99.5732 0.347542 99.2902 0.537751 99.048 0.773796C98.8119 1.01603 98.6217 1.29902 98.4866 1.60907C98.3436 1.9324 98.2712 2.28251 98.2743 2.63604C98.2705 2.98742 98.3429 3.33546 98.4866 3.65616C98.6173 3.94775 98.798 4.21422 99.0206 4.4435C99.2625 4.68164 99.5455 4.87415 99.8558 5.01176C100.181 5.14932 100.53 5.2192 100.883 5.21716C101.233 5.21982 101.581 5.14989 101.903 5.01176C102.214 4.87578 102.497 4.68308 102.738 4.4435C102.975 4.21001 103.166 3.93352 103.3 3.62877C103.438 3.30655 103.508 2.95922 103.505 2.60865C103.507 2.25592 103.437 1.90648 103.3 1.58168ZM102.868 3.45077C102.759 3.70517 102.603 3.93725 102.41 4.13541C102.211 4.329 101.979 4.48449 101.725 4.59413C101.459 4.70992 101.172 4.76825 100.883 4.76529C100.593 4.76825 100.306 4.70992 100.041 4.59413C99.7854 4.4862 99.553 4.33051 99.3561 4.13541C99.1604 3.93752 99.0026 3.70548 98.8905 3.45077C98.7788 3.18401 98.7206 2.89787 98.7193 2.60865C98.7191 2.31929 98.7773 2.03286 98.8905 1.76653C99.1111 1.24507 99.5261 0.830043 100.048 0.60948C100.314 0.496333 100.6 0.438116 100.89 0.438319C101.179 0.439581 101.465 0.49774 101.732 0.60948C101.987 0.721581 102.219 0.879369 102.416 1.07504C102.612 1.27197 102.767 1.50435 102.875 1.75969C102.991 2.02518 103.049 2.31217 103.046 2.6018C103.05 2.89374 102.992 3.18316 102.875 3.45077H102.868ZM101.369 2.82089C101.561 2.80099 101.741 2.7193 101.882 2.58811C101.955 2.50765 102.01 2.41346 102.046 2.31114C102.081 2.20882 102.095 2.10045 102.088 1.99247C102.098 1.86617 102.08 1.73912 102.035 1.62065C101.99 1.50217 101.919 1.39528 101.828 1.30782C101.598 1.12984 101.31 1.04436 101.02 1.06819H99.8764V4.08064H100.431V2.86197H100.828L101.581 4.09433H102.163L101.369 2.82089ZM101.081 2.38956H100.821H100.424V1.55429H101.109C101.186 1.55555 101.263 1.57182 101.335 1.60222C101.403 1.62902 101.462 1.67403 101.506 1.7323C101.551 1.80106 101.573 1.88284 101.567 1.96508C101.572 2.04723 101.55 2.1287 101.506 2.19786C101.46 2.25226 101.401 2.29457 101.335 2.3211C101.256 2.36205 101.17 2.38541 101.081 2.38956Z" fill="white"/>
<path d="M155.648 29.1455C157.222 28.5103 158.571 27.4185 159.52 26.0105C160.47 24.6025 160.976 22.9428 160.974 21.2447C160.974 16.6165 157.359 12.9536 152.416 12.9536H138.84V39.9493H143.009V29.5358H151.451L157.161 39.9493H161.721L155.648 29.1455ZM152.416 25.6675H143.009V16.8082H152.402C153.583 16.8082 154.715 17.277 155.549 18.1116C156.384 18.9462 156.853 20.0781 156.853 21.2584C156.853 22.4387 156.384 23.5706 155.549 24.4052C154.715 25.2397 153.583 25.7086 152.402 25.7086L152.416 25.6675Z" fill="#00C7FD"/>
<path d="M118.348 12.9468L106.517 39.9424H110.968L120.443 17.8831L125.503 29.57H117.622L116.013 33.3493H127.098L129.953 39.9424H134.403L122.531 12.9468H118.348Z" fill="#00C7FD"/>
<path d="M192.085 13.3439V12.9399H194.44V13.3439H193.488V15.9524H193.036V13.3439H192.085Z" fill="#00C7FD"/>
<path d="M195.391 12.9399L196.494 14.4941L197.596 12.9399H198V15.9524H197.548V13.741L196.494 15.1993L195.439 13.741V15.9524H194.994V12.9399H195.391Z" fill="#00C7FD"/>
<path d="M187.511 20.4712C186.557 19.1971 185.316 18.1664 183.888 17.4632C182.46 16.76 180.887 16.4043 179.295 16.4249C177.985 16.4239 176.687 16.6834 175.478 17.1884C174.269 17.6933 173.172 18.4337 172.251 19.3664C171.331 20.299 170.605 21.4054 170.116 22.6212C169.627 23.8369 169.384 25.1378 169.402 26.4482C169.384 27.7588 169.626 29.06 170.116 30.2762C170.605 31.4923 171.33 32.5991 172.251 33.5324C173.171 34.4656 174.268 35.2066 175.477 35.7123C176.687 36.218 177.984 36.4784 179.295 36.4782C180.922 36.4619 182.524 36.0703 183.975 35.3341C185.426 34.5979 186.688 33.5368 187.662 32.2334L190.325 34.9309C189.01 36.6021 187.336 37.9555 185.427 38.8907C183.517 39.8259 181.421 40.3188 179.295 40.3328C175.613 40.3328 172.081 38.87 169.477 36.2661C166.873 33.6622 165.411 30.1306 165.411 26.4482C165.411 22.7657 166.873 19.2341 169.477 16.6302C172.081 14.0264 175.613 12.5635 179.295 12.5635C181.379 12.55 183.439 13.0123 185.317 13.9152C187.195 14.8181 188.842 16.1378 190.133 17.7737L187.511 20.4712Z" fill="#00C7FD"/>
<path d="M107.403 61.3728V51.5728H111.659C112.732 51.5728 113.577 51.8435 114.193 52.3848C114.818 52.9168 115.131 53.6401 115.131 54.5548C115.131 55.4788 114.795 56.2208 114.123 56.7808C113.451 57.3315 112.555 57.6068 111.435 57.6068H108.607V61.3728H107.403ZM113.899 54.5828C113.899 53.9855 113.698 53.5188 113.297 53.1828C112.896 52.8375 112.336 52.6648 111.617 52.6648H108.607V56.5288H111.519C112.247 56.5288 112.826 56.3561 113.255 56.0108C113.684 55.6561 113.899 55.1801 113.899 54.5828ZM115.925 56.4868C115.925 55.0401 116.406 53.8221 117.367 52.8328C118.329 51.8435 119.514 51.3488 120.923 51.3488C122.342 51.3488 123.523 51.8388 124.465 52.8188C125.417 53.7895 125.893 55.0028 125.893 56.4588C125.893 57.9148 125.413 59.1375 124.451 60.1268C123.499 61.1068 122.319 61.5968 120.909 61.5968C119.491 61.5968 118.305 61.1115 117.353 60.1408C116.401 59.1608 115.925 57.9428 115.925 56.4868ZM117.157 56.4588C117.157 57.6068 117.517 58.5728 118.235 59.3568C118.963 60.1315 119.859 60.5188 120.923 60.5188C121.987 60.5188 122.874 60.1361 123.583 59.3708C124.302 58.5961 124.661 57.6348 124.661 56.4868C124.661 55.3388 124.302 54.3775 123.583 53.6028C122.865 52.8188 121.973 52.4268 120.909 52.4268C119.836 52.4268 118.94 52.8141 118.221 53.5888C117.512 54.3541 117.157 55.3108 117.157 56.4588ZM139.119 51.5728L136.879 61.3728H135.619L132.833 53.2948L130.075 61.3728H128.815L126.589 51.5728H127.821L129.557 59.6088L132.273 51.5728H133.435L136.151 59.6228L137.873 51.5728H139.119ZM140.516 61.3728V51.5728H147.628V52.6368H141.72V55.8988H147.236V56.9628H141.72V60.3088H147.628V61.3728H140.516ZM154.475 57.2428L157.261 61.3728H155.833L153.187 57.3828H150.429V61.3728H149.225V51.5728H153.537C154.639 51.5728 155.497 51.8295 156.113 52.3428C156.729 52.8468 157.037 53.5421 157.037 54.4288C157.037 55.1568 156.813 55.7681 156.365 56.2628C155.917 56.7575 155.287 57.0841 154.475 57.2428ZM155.819 54.4568C155.819 53.8875 155.614 53.4441 155.203 53.1268C154.802 52.8001 154.237 52.6368 153.509 52.6368H150.429V56.3328H153.411C154.149 56.3328 154.732 56.1648 155.161 55.8288C155.6 55.4835 155.819 55.0261 155.819 54.4568ZM158.577 61.3728V51.5728H165.689V52.6368H159.781V55.8988H165.297V56.9628H159.781V60.3088H165.689V61.3728H158.577ZM167.286 61.3728V51.5728H170.968C172.499 51.5728 173.731 52.0255 174.664 52.9308C175.607 53.8361 176.078 55.0121 176.078 56.4588C176.078 57.8961 175.602 59.0768 174.65 60.0008C173.698 60.9155 172.461 61.3728 170.94 61.3728H167.286ZM174.86 56.4868C174.86 55.3668 174.496 54.4521 173.768 53.7428C173.049 53.0241 172.111 52.6648 170.954 52.6648H168.49V60.2808H170.954C172.111 60.2808 173.049 59.9261 173.768 59.2168C174.496 58.5075 174.86 57.5975 174.86 56.4868ZM180.11 61.3728V51.5728H184.352C185.444 51.5728 186.289 51.7968 186.886 52.2448C187.484 52.6928 187.782 53.3275 187.782 54.1488C187.782 54.6715 187.647 55.1241 187.376 55.5068C187.106 55.8801 186.7 56.1695 186.158 56.3748C186.765 56.5335 187.218 56.8088 187.516 57.2008C187.824 57.5835 187.978 58.0781 187.978 58.6848C187.978 59.4875 187.666 60.1361 187.04 60.6308C186.415 61.1255 185.589 61.3728 184.562 61.3728H180.11ZM186.578 54.2048C186.578 53.6915 186.387 53.3041 186.004 53.0428C185.622 52.7721 185.062 52.6368 184.324 52.6368H181.328V55.8988H184.506C185.113 55.8988 185.608 55.7401 185.99 55.4228C186.382 55.1055 186.578 54.6995 186.578 54.2048ZM186.774 58.6708C186.774 58.1481 186.597 57.7328 186.242 57.4248C185.888 57.1168 185.407 56.9628 184.8 56.9628H181.328V60.3088H184.646C185.29 60.3088 185.804 60.1595 186.186 59.8608C186.578 59.5621 186.774 59.1655 186.774 58.6708ZM196.053 51.5728H197.495L193.407 57.2708V61.3728H192.203V57.2708L188.115 51.5728H189.599L192.819 56.2488L196.053 51.5728Z" fill="white"/>
</svg>
