<?xml version="1.0" encoding="UTF-8"?>
<svg id="Layer_2" data-name="Layer 2" xmlns="http://www.w3.org/2000/svg" viewBox="0 0 395.4 155.9">
  <defs>
    <style>
      .cls-1 {
        fill: #000f28;
      }

      .cls-2 {
        fill: #00c7fd;
      }
    </style>
  </defs>
  <rect class="cls-2" x="4.7" y="5.2" width="28.1" height="28.1"/>
  <path class="cls-1" d="M32.1,151.6V50.3H5.4v101.2h26.7v.1ZM208.9,152.6v-24.8c-3.9,0-7.2-.2-9.6-.6-2.8-.4-4.9-1.4-6.3-2.8-1.4-1.4-2.3-3.4-2.8-6.1-.4-2.5-.6-5.8-.6-9.8v-35.3h19.3v-22.9h-19.3V10.9h-26.7v97.9c0,8.3.7,15.3,2.1,20.9,1.4,5.5,3.8,10,7.1,13.4s7.7,5.8,13,7.3c5.4,1.5,12.2,2.2,20.3,2.2h3.5ZM361.7,151.6V3.1h-26.7v148.5h26.7ZM137.2,60.3c-7.4-8-17.8-12-31-12-6.4,0-12.3,1.3-17.5,3.9-5.3,2.6-9.7,6.2-13.3,10.8l-1.4,1.9v-14.6h-26.3v101.2h26.5v-53.9,3.7-1.8c.3-9.5,2.6-16.5,7-21,4.7-4.8,10.4-7.2,16.9-7.2,7.7,0,13.6,2.4,17.5,7,3.8,4.6,5.8,11.1,5.8,19.4h0v.3h0v53.5h26.9v-57.4c.1-14.4-3.7-25.8-11.1-33.8ZM321.2,100.8c0-7.3-1.3-14.1-3.8-20.5-2.6-6.3-6.2-11.9-10.7-16.7-4.6-4.8-10.1-8.5-16.5-11.2s-13.5-4-21.2-4c-7.3,0-14.2,1.4-20.6,4.1-6.4,2.8-12,6.5-16.7,11.2s-8.5,10.3-11.2,16.7c-2.8,6.4-4.1,13.3-4.1,20.6s1.3,14.2,3.9,20.6c2.6,6.4,6.3,12,10.9,16.7,4.6,4.7,10.3,8.5,16.9,11.2,6.6,2.8,13.9,4.2,21.7,4.2,22.6,0,36.6-10.3,45-19.9l-19.2-14.6c-4,4.8-13.6,11.3-25.6,11.3-7.5,0-13.7-1.7-18.4-5.2-4.7-3.4-7.9-8.2-9.6-14.1l-.3-.9h79.5v-9.5h0ZM241.9,91.5c0-7.4,8.5-20.3,26.8-20.4,18.3,0,26.9,12.9,26.9,20.3l-53.7.1ZM392.1,138.8c-.5-1.2-1.2-2.2-2.1-3.1-.9-.9-1.9-1.6-3.1-2.1s-2.5-.8-3.8-.8c-1.4,0-2.6.3-3.8.8-1.2.5-2.2,1.2-3.1,2.1-.9.9-1.6,1.9-2.1,3.1-.5,1.2-.8,2.5-.8,3.8,0,1.4.3,2.6.8,3.8s1.2,2.2,2.1,3.1c.9.9,1.9,1.6,3.1,2.1s2.5.8,3.8.8c1.4,0,2.6-.3,3.8-.8,1.2-.5,2.2-1.2,3.1-2.1.9-.9,1.6-1.9,2.1-3.1.5-1.2.8-2.5.8-3.8s-.3-2.6-.8-3.8ZM390.5,145.8c-.4,1-1,1.9-1.7,2.6-.7.7-1.6,1.3-2.6,1.7s-2,.6-3.2.6c-1.1,0-2.2-.2-3.2-.6-1-.4-1.9-1-2.6-1.7s-1.3-1.6-1.7-2.6c-.4-1-.6-2-.6-3.2,0-1.1.2-2.2.6-3.2s1-1.9,1.7-2.6c.7-.7,1.6-1.3,2.6-1.7s2-.6,3.2-.6c1.1,0,2.2.2,3.2.6,1,.4,1.9,1,2.6,1.7s1.3,1.6,1.7,2.6c.4,1,.6,2,.6,3.2s-.2,2.2-.6,3.2ZM384.9,143.5c.8-.1,1.4-.4,1.9-.9s.8-1.2.8-2.2c0-1.1-.3-1.9-1-2.5-.6-.6-1.7-.9-3-.9h-4.4v11.3h2.1v-4.6h1.5l2.8,4.6h2.2l-2.9-4.8ZM383.8,141.8h-2.5v-3.2h2.5c.3,0,.6.1.9.2.3.1.5.3.6.5.2.2.2.5.2.9s-.1.7-.2.9c-.2.2-.4.4-.6.5-.3.1-.6.2-.9.2Z"/>
</svg>
