<svg width="24" height="24" viewBox="0 0 24 24" fill="none" xmlns="http://www.w3.org/2000/svg">
<g id="Group 427319961">
<path id="Vector" d="M21.4068 22.1887H2.9834V1.70898H17.588L21.4072 6.41746V22.1887H21.4068ZM4.39668 20.7756H19.9938V6.91834L16.9142 3.12202H4.39668V20.7756Z" fill="currentColor"/>
<g id="MD">
<path d="M7.32836 16H6V9H7.22618L9.23838 12.3826H9.28554L11.2977 9H12.5239V16H11.1877V11.8348H11.1405L9.77287 14.0783H8.75105L7.37552 11.8696H7.32836V16Z" fill="currentColor"/>
<path d="M13.5608 16V9H15.7852C16.4612 9 17.0402 9.14203 17.5223 9.42609C18.0044 9.71015 18.3712 10.1159 18.6227 10.6435C18.8742 11.1652 19 11.7855 19 12.5043C19 13.2174 18.869 13.8377 18.607 14.3652C18.345 14.887 17.9625 15.2899 17.4594 15.5739C16.9564 15.858 16.3538 16 15.6516 16H13.5608ZM15.6594 14.5739C16.2725 14.5739 16.7468 14.3913 17.0821 14.0261C17.4227 13.6551 17.593 13.1478 17.593 12.5043C17.593 11.8551 17.4306 11.3478 17.1057 10.9826C16.7808 10.6116 16.3197 10.4261 15.7223 10.4261H14.9363V14.5739H15.6594Z" fill="currentColor"/>
</g>
</g>
</svg>
