<svg width="142" height="92" viewBox="0 0 142 92" fill="none" xmlns="http://www.w3.org/2000/svg">
<rect x="0.5" y="0.5" width="141" height="91" rx="9.5" fill="#110F17" stroke="#616161" stroke-dasharray="2 2"/>
<path d="M92.8152 23H49.1848C48.0749 23 47.0105 23.455 46.2257 24.265C45.4409 25.0749 45 26.1734 45 27.3189V64.7834C45.0259 65.911 45.4782 66.9834 46.2602 67.7714C47.0422 68.5594 48.0918 69.0003 49.1848 69H92.8152C93.9082 69.0003 94.9578 68.5594 95.7398 67.7714C96.5218 66.9834 96.9741 65.911 97 64.7834V27.3189C97 26.7517 96.8918 26.1901 96.6814 25.6661C96.4711 25.1421 96.1629 24.666 95.7743 24.265C95.3857 23.8639 94.9244 23.5458 94.4166 23.3287C93.9089 23.1117 93.3648 23 92.8152 23ZM85.9562 46.3067C85.5979 46.0328 85.1639 45.8849 84.7181 45.8849C84.2723 45.8849 83.8382 46.0328 83.48 46.3067L74.4419 52.5934L61.5905 36.0589C61.3956 35.8389 61.1584 35.6631 60.8941 35.5429C60.6298 35.4227 60.3441 35.3606 60.0552 35.3606C59.7664 35.3606 59.4807 35.4227 59.2164 35.5429C58.9521 35.6631 58.7149 35.8389 58.52 36.0589L49.1848 45.8467V27.3189H92.8152V49.2455L85.9562 46.3067Z" fill="#DCDCDC"/>
<path d="M82.0504 32.2007C80.8934 32.2007 79.7624 32.5476 78.8004 33.1974C77.8383 33.8473 77.0885 34.771 76.6457 35.8517C76.203 36.9324 76.0871 38.1215 76.3129 39.2688C76.5386 40.4161 77.0957 41.4699 77.9139 42.297C78.732 43.1241 79.7744 43.6874 80.9092 43.9156C82.044 44.1438 83.2202 44.0267 84.2892 43.579C85.3581 43.1314 86.2718 42.3733 86.9146 41.4007C87.5574 40.4281 87.9004 39.2847 87.9004 38.1149C87.9004 36.5464 87.2841 35.0421 86.187 33.933C85.0899 32.8238 83.6019 32.2007 82.0504 32.2007V32.2007ZM82.0504 39.6871C81.7185 39.6871 81.394 39.5876 81.1179 39.4011C80.8419 39.2146 80.6268 38.9496 80.4997 38.6395C80.3727 38.3294 80.3395 37.9882 80.4043 37.6591C80.469 37.3299 80.6289 37.0275 80.8636 36.7902C81.0984 36.5529 81.3975 36.3913 81.723 36.3258C82.0486 36.2604 82.3861 36.294 82.6928 36.4224C82.9995 36.5508 83.2617 36.7683 83.4461 37.0474C83.6305 37.3265 83.729 37.6545 83.729 37.9902C83.7424 38.2213 83.709 38.4527 83.6307 38.6703C83.5524 38.8878 83.4309 39.0869 83.2737 39.2552C83.1164 39.4235 82.9268 39.5575 82.7164 39.6489C82.5061 39.7404 82.2794 39.7873 82.0504 39.7869V39.6871Z" fill="#DCDCDC"/>
</svg>
