<svg width="20" height="18" viewBox="0 0 20 18" fill="none" xmlns="http://www.w3.org/2000/svg">
<path d="M1.48505 17.1667C1.03593 17.1667 0.666748 16.7527 0.666748 16.2544C0.666748 15.7495 1.03567 15.3421 1.48505 15.3421H4.30967V3.94368L2.18866 6.33113C1.87161 6.68034 1.35807 6.68034 1.03567 6.33113C0.718076 5.96872 0.718076 5.39901 1.03567 5.0372L4.55214 1.09691C4.86331 0.766905 5.31831 0.741105 5.65889 1.05191L5.69899 1.09691L5.7161 1.11011L9.22135 5.0372C9.53252 5.39901 9.53252 5.96872 9.22135 6.33113C8.89253 6.68034 8.37952 6.68034 8.06246 6.33113L5.93504 3.94368V15.3421H14.0638V3.94368L11.9364 6.33113C11.6311 6.68034 11.1063 6.68034 10.7892 6.33113C10.4781 5.96872 10.4781 5.39901 10.7892 5.0372L14.2998 1.09691C14.6169 0.766905 15.0786 0.741105 15.4007 1.05191L15.4584 1.09691L15.4702 1.11011L18.9637 5.0372C19.2807 5.39901 19.2807 5.96872 18.9637 6.33113C18.652 6.68034 18.1331 6.68034 17.8219 6.33113L15.6892 3.94368V15.3421H18.5146C18.9757 15.3421 19.3334 15.7495 19.3334 16.2544C19.3334 16.7527 18.9757 17.1667 18.5146 17.1667H1.48505Z" fill="currentColor"/>
</svg>
