<svg width="24" height="24" viewBox="0 0 24 24" fill="none" xmlns="http://www.w3.org/2000/svg">
<g id="Group 427319958">
<path id="Vector" d="M21.4068 22.1887H2.9834V1.70898H17.588L21.4072 6.41746V22.1887H21.4068ZM4.39668 20.7756H19.9938V6.91834L16.9142 3.12202H4.39668V20.7756Z" fill="currentColor"/>
<path id="Vector_2" d="M16.8449 14.9503C15.9295 14.8825 15.0485 14.5436 14.3366 13.9332C12.9463 14.2382 11.6244 14.6792 10.3023 15.2216C9.25138 17.0864 8.26826 18.0353 7.42066 18.0353C7.25122 18.0353 7.04778 18.0013 6.91226 17.8997C6.5393 17.7302 6.33594 17.3572 6.33594 16.9845C6.33594 16.6793 6.40362 15.8315 9.6245 14.4419C10.3699 13.0858 10.9463 11.6957 11.421 10.2381C11.0142 9.42451 10.1329 7.42427 10.7431 6.40747C10.9463 6.03443 11.3533 5.83107 11.794 5.86499C12.133 5.86499 12.4719 6.03451 12.6751 6.30571C13.1161 6.91603 13.0821 8.20403 12.5056 10.1026C13.0483 11.1196 13.7602 12.0348 14.6076 12.8148C15.3196 12.6791 16.0313 12.5772 16.7434 12.5772C18.3367 12.6111 18.5739 13.3572 18.5403 13.7975C18.5402 14.9504 17.4215 14.9503 16.8449 14.9503ZM7.3529 17.0523L7.45466 17.0179C7.92922 16.8486 8.3021 16.5097 8.57338 16.0689C8.06474 16.2724 7.65794 16.6118 7.3529 17.0523ZM11.8617 6.88187H11.7598C11.7259 6.88187 11.6582 6.88187 11.6243 6.91595C11.4887 7.49211 11.5907 8.10243 11.8279 8.64483C12.0311 8.06851 12.0311 7.45811 11.8617 6.88187ZM12.0991 11.7975L12.065 11.8655L12.0311 11.8315C11.7259 12.611 11.387 13.3912 11.0139 14.1367L11.0818 14.1029V14.1704C11.8279 13.8991 12.6413 13.6623 13.3873 13.4928L13.3531 13.4587H13.4549C12.9462 12.9499 12.4718 12.3737 12.0991 11.7975ZM16.7095 13.5944C16.4044 13.5944 16.1332 13.5944 15.828 13.6623C16.1669 13.8315 16.5059 13.8991 16.8448 13.9332C17.0826 13.9672 17.3195 13.9332 17.5229 13.8656C17.5229 13.7635 17.3874 13.5944 16.7095 13.5944Z" fill="currentColor"/>
</g>
</svg>
