<svg width="24" height="24" viewBox="0 0 24 24" fill="none" xmlns="http://www.w3.org/2000/svg">
<g id="Group 427319960">
<path id="Vector" d="M21.4068 22.1887H2.9834V1.70898H17.588L21.4072 6.41746V22.1887H21.4068ZM4.39668 20.7756H19.9938V6.91834L16.9142 3.12202H4.39668V20.7756Z" fill="currentColor"/>
<path id="P" d="M11.8621 7C12.6301 7 13.2981 7.136 13.8661 7.408C14.4341 7.672 14.8701 8.056 15.1741 8.56C15.4781 9.056 15.6301 9.64 15.6301 10.312C15.6301 10.984 15.4821 11.568 15.1861 12.064C14.8901 12.56 14.4661 12.944 13.9141 13.216C13.3701 13.48 12.7261 13.612 11.9821 13.612H10.4701V16.66H8.37012V7H11.8621ZM11.5501 11.704C12.1501 11.704 12.6221 11.58 12.9661 11.332C13.3101 11.084 13.4821 10.744 13.4821 10.312C13.4821 9.88 13.3101 9.54 12.9661 9.292C12.6221 9.036 12.1501 8.908 11.5501 8.908H10.4701V11.704H11.5501Z" fill="currentColor"/>
</g>
</svg>
