<svg width="64" height="64" viewBox="24 10 42 42" fill="none" xmlns="http://www.w3.org/2000/svg">
<path d="M54.7497 11.9998H59.9996C62.2088 11.9998 63.9996 13.7906 63.9996 15.9998V21.7507M36.2499 11.9998H31C28.7909 11.9998 27 13.7906 27 15.9998V21.7507M27 41.2527V47.0037C27 49.2128 28.7909 51.0037 31 51.0037H36.2499M54.7497 51.0037H59.9996C62.2088 51.0037 63.9996 49.2128 63.9996 47.0037V41.2527" stroke="url(#paint1_linear_435_564)" stroke-width="1.5" stroke-linecap="round"/>
<path fill-rule="evenodd" clip-rule="evenodd" d="M35.9326 16.7771C33.7235 16.7771 31.9326 18.568 31.9326 20.7771V42.229C31.9326 44.4382 33.7235 46.229 35.9326 46.229H55.0657C57.2748 46.229 59.0657 44.4382 59.0657 42.229V20.7771C59.0657 18.568 57.2748 16.7771 55.0657 16.7771H35.9326ZM38.0601 23.1443C37.4007 23.1443 36.8662 23.6788 36.8662 24.3382C36.8662 24.9975 37.4007 25.532 38.0601 25.532H52.9388C53.5982 25.532 54.1327 24.9975 54.1327 24.3382C54.1327 23.6788 53.5982 23.1443 52.9388 23.1443H38.0601ZM36.8662 31.5022C36.8662 30.8429 37.4007 30.3083 38.0601 30.3083H52.9388C53.5982 30.3083 54.1327 30.8429 54.1327 31.5022C54.1327 32.1616 53.5982 32.6961 52.9388 32.6961H38.0601C37.4007 32.6961 36.8662 32.1616 36.8662 31.5022ZM38.0601 37.4724C37.4007 37.4724 36.8662 38.0069 36.8662 38.6663C36.8662 39.3256 37.4007 39.8602 38.0601 39.8602H52.9388C53.5982 39.8602 54.1327 39.3256 54.1327 38.6663C54.1327 38.0069 53.5982 37.4724 52.9388 37.4724H38.0601Z" fill="url(#paint2_linear_435_564)"/>
<defs>
<linearGradient id="paint0_linear_435_564" x1="45.5" y1="0" x2="45.5" y2="82" gradientUnits="userSpaceOnUse">
<stop stop-color="white" stop-opacity="0.27"/>
<stop offset="1" stop-color="white" stop-opacity="0"/>
</linearGradient>
<linearGradient id="paint1_linear_435_564" x1="45.4998" y1="11.9998" x2="45.4998" y2="51.0037" gradientUnits="userSpaceOnUse">
<stop stop-color="#0A8BA3"/>
<stop offset="1" stop-color="#831EA3"/>
</linearGradient>
<linearGradient id="paint2_linear_435_564" x1="31.699" y1="22.0948" x2="45.846" y2="57.1125" gradientUnits="userSpaceOnUse">
<stop stop-color="#0A8BA3"/>
<stop offset="1" stop-color="#811FA3"/>
</linearGradient>
</defs>
</svg>
