<svg width="91" height="82" viewBox="0 0 91 82" fill="none" xmlns="http://www.w3.org/2000/svg">
<rect x="0.5" y="0.5" width="90" height="81" rx="5.5" stroke="url(#paint0_linear_435_574)"/>
<path d="M35.7787 64.32H37.1107C38.3827 64.32 39.0907 63.792 39.0907 62.724C39.0907 61.656 38.3827 61.284 37.1107 61.284H35.7787V64.32ZM39.2107 69L37.2187 65.436H35.7787V69H34.3867V60.156H37.2787C39.1027 60.156 40.4707 60.804 40.4707 62.724C40.4707 64.092 39.7387 64.908 38.6227 65.256L40.7827 69H39.2107ZM41.0273 69L43.9553 60.156H45.5633L48.4913 69H47.0153L46.2713 66.492H43.1993L42.4553 69H41.0273ZM43.5353 65.388H45.9353L45.5873 64.2C45.2993 63.24 45.0353 62.256 44.7593 61.26H44.7113C44.4473 62.268 44.1713 63.24 43.8833 64.2L43.5353 65.388ZM53.1393 69.168C50.7753 69.168 49.0353 67.5 49.0353 64.596C49.0353 61.728 50.8233 60 53.1753 60C54.4233 60 55.2633 60.552 55.7913 61.116L55.0473 62.004C54.6033 61.572 54.0633 61.212 53.2113 61.212C51.5673 61.212 50.4753 62.484 50.4753 64.56C50.4753 66.648 51.4473 67.944 53.2833 67.944C53.8233 67.944 54.3513 67.776 54.6513 67.512V65.448H52.9113V64.296H55.9233V68.124C55.3353 68.712 54.3393 69.168 53.1393 69.168Z" fill="white"/>
<path d="M54.7497 12.0001H59.9996C62.2088 12.0001 63.9996 13.791 63.9996 16.0001V21.7511M36.2499 12.0001H31C28.7909 12.0001 27 13.791 27 16.0001V21.7511M27 41.2531V47.004C27 49.2132 28.7909 51.004 31 51.004H36.2499M54.7497 51.004H59.9996C62.2088 51.004 63.9996 49.2132 63.9996 47.004V41.2531" stroke="url(#paint1_linear_435_574)" stroke-width="1.5" stroke-linecap="round"/>
<path fill-rule="evenodd" clip-rule="evenodd" d="M35.9326 16.7775C33.7235 16.7775 31.9326 18.5683 31.9326 20.7775V42.2294C31.9326 44.4385 33.7235 46.2294 35.9326 46.2294H55.0657C57.2748 46.2294 59.0657 44.4385 59.0657 42.2294V20.7775C59.0657 18.5683 57.2748 16.7775 55.0657 16.7775H35.9326ZM38.0601 23.1447C37.4007 23.1447 36.8662 23.6792 36.8662 24.3385C36.8662 24.9979 37.4007 25.5324 38.0601 25.5324H52.9388C53.5982 25.5324 54.1327 24.9979 54.1327 24.3385C54.1327 23.6792 53.5982 23.1447 52.9388 23.1447H38.0601ZM36.8662 31.5026C36.8662 30.8432 37.4007 30.3087 38.0601 30.3087H52.9388C53.5982 30.3087 54.1327 30.8432 54.1327 31.5026C54.1327 32.162 53.5982 32.6965 52.9388 32.6965H38.0601C37.4007 32.6965 36.8662 32.162 36.8662 31.5026ZM38.0601 37.4728C37.4007 37.4728 36.8662 38.0073 36.8662 38.6667C36.8662 39.326 37.4007 39.8605 38.0601 39.8605H52.9388C53.5982 39.8605 54.1327 39.326 54.1327 38.6667C54.1327 38.0073 53.5982 37.4728 52.9388 37.4728H38.0601Z" fill="url(#paint2_linear_435_574)"/>
<g filter="url(#filter0_b_435_574)">
<circle cx="55.5" cy="42.5001" r="9.5" fill="#110F1A" fill-opacity="0.39"/>
<circle cx="55.5" cy="42.5001" r="9" stroke="#86AFEF"/>
</g>
<path d="M54.8457 45.9414C52.5873 45.9414 50.75 44.104 50.75 41.8457C50.75 39.5875 52.5873 37.7501 54.8457 37.7501C57.1041 37.7501 58.9415 39.5875 58.9415 41.8457C58.9415 44.104 57.1041 45.9414 54.8457 45.9414ZM54.8457 38.7582C53.1432 38.7582 51.7581 40.1433 51.7581 41.8457C51.7581 43.5482 53.1432 44.9333 54.8457 44.9333C56.5482 44.9333 57.9334 43.5482 57.9334 41.8457C57.9334 40.1433 56.5482 38.7582 54.8457 38.7582Z" fill="white"/>
<path d="M59.6293 47.2496C59.4705 47.2496 59.3118 47.189 59.1906 47.0679L57.0508 44.9283C56.8086 44.686 56.8086 44.2932 57.0508 44.0509C57.2932 43.8087 57.6859 43.8087 57.9283 44.0509L60.0681 46.1905C60.3103 46.4328 60.3103 46.8256 60.0681 47.0679C59.9469 47.189 59.7882 47.2496 59.6293 47.2496Z" fill="white"/>
<defs>
<filter id="filter0_b_435_574" x="41.9" y="28.9001" width="27.2" height="27.2" filterUnits="userSpaceOnUse" color-interpolation-filters="sRGB">
<feFlood flood-opacity="0" result="BackgroundImageFix"/>
<feGaussianBlur in="BackgroundImageFix" stdDeviation="2.05"/>
<feComposite in2="SourceAlpha" operator="in" result="effect1_backgroundBlur_435_574"/>
<feBlend mode="normal" in="SourceGraphic" in2="effect1_backgroundBlur_435_574" result="shape"/>
</filter>
<linearGradient id="paint0_linear_435_574" x1="45.5" y1="0" x2="45.5" y2="82" gradientUnits="userSpaceOnUse">
<stop stop-color="white" stop-opacity="0.27"/>
<stop offset="1" stop-color="white" stop-opacity="0"/>
</linearGradient>
<linearGradient id="paint1_linear_435_574" x1="45.4998" y1="12.0001" x2="45.4998" y2="51.004" gradientUnits="userSpaceOnUse">
<stop stop-color="#04DDFE"/>
<stop offset="1" stop-color="#CF27FF"/>
</linearGradient>
<linearGradient id="paint2_linear_435_574" x1="31.699" y1="22.0952" x2="45.846" y2="57.1128" gradientUnits="userSpaceOnUse">
<stop stop-color="#04DDFE"/>
<stop offset="1" stop-color="#FA00FF"/>
</linearGradient>
</defs>
</svg>
