<svg width="20" height="20" viewBox="0 0 20 20" fill="none" xmlns="http://www.w3.org/2000/svg">
    <g id="microphone">
        <path id="mic-body" d="M10 2C9.20435 2 8.44129 2.31607 7.87868 2.87868C7.31607 3.44129 7 4.20435 7 5V10C7 10.7956 7.31607 11.5587 7.87868 12.1213C8.44129 12.6839 9.20435 13 10 13C10.7956 13 11.5587 12.6839 12.1213 12.1213C12.6839 11.5587 13 10.7956 13 10V5C13 4.20435 12.6839 3.44129 12.1213 2.87868C11.5587 2.31607 10.7956 2 10 2Z" fill="white"/>
        <path id="mic-stand" d="M10 15.5C8.54131 15.5 7.14236 14.9205 6.11091 13.8891C5.07946 12.8576 4.5 11.4587 4.5 10H3.5C3.5 11.7239 4.18482 13.3772 5.40381 14.5962C6.62279 15.8152 8.27609 16.5 10 16.5C11.7239 16.5 13.3772 15.8152 14.5962 14.5962C15.8152 13.3772 16.5 11.7239 16.5 10H15.5C15.5 11.4587 14.9205 12.8576 13.8891 13.8891C12.8576 14.9205 11.4587 15.5 10 15.5Z" fill="white"/>
        <path id="mic-base" d="M9.5 16.5V18H10.5V16.5H9.5Z" fill="white"/>
        <path id="mic-foot" d="M8 18H12V18.5H8V18Z" fill="white"/>
    </g>
</svg>