<svg width="16" height="16" viewBox="0 0 16 16" fill="none" xmlns="http://www.w3.org/2000/svg">
<path d="M11.5055 8.49687L12 8.00366L5.19292 1.20276C5.06161 1.07287 4.88427 1 4.69946 1C4.51465 1 4.33732 1.07287 4.20601 1.20276C4.14088 1.26734 4.08917 1.34416 4.05387 1.42877C4.01856 1.51339 4.00035 1.60414 4.00029 1.69581C4.00022 1.78748 4.0183 1.87826 4.05349 1.96293C4.08867 2.0476 4.14027 2.12448 4.20531 2.18916L10.0234 8.00227L4.20531 13.8105C4.14025 13.8751 4.08861 13.9519 4.05337 14.0364C4.01814 14.121 4 14.2117 4 14.3033C4 14.395 4.01814 14.4857 4.05338 14.5703C4.08861 14.6548 4.14025 14.7316 4.20531 14.7962C4.33646 14.9265 4.51385 14.9997 4.69883 15C4.8838 15.0003 5.06139 14.9275 5.19292 14.7976L11.4769 8.52407L11.5055 8.49617L11.5055 8.49687Z" fill="white"/>
</svg>
