<svg width="160" height="36" viewBox="0 0 160 36" fill="none" xmlns="http://www.w3.org/2000/svg">
<mask id="mask0_288_1975" style="mask-type:alpha" maskUnits="userSpaceOnUse" x="0" y="0" width="160" height="36">
<rect x="0.5" y="0.5" width="159" height="35" fill="#38383D" stroke="url(#paint0_linear_288_1975)"/>
</mask>
<g mask="url(#mask0_288_1975)">
<mask id="path-2-inside-1_288_1975" fill="white">
<path fill-rule="evenodd" clip-rule="evenodd" d="M152 8C152 3.58172 148.418 0 144 0H8C3.58172 0 0 3.58172 0 8V36V175C0 179.418 3.58171 183 7.99998 183H1125C1129.42 183 1133 179.418 1133 175V44C1133 39.5817 1129.42 36 1125 36H160C155.582 36 152 32.4183 152 28V8Z"/>
</mask>
<path fill-rule="evenodd" clip-rule="evenodd" d="M152 8C152 3.58172 148.418 0 144 0H8C3.58172 0 0 3.58172 0 8V36V175C0 179.418 3.58171 183 7.99998 183H1125C1129.42 183 1133 179.418 1133 175V44C1133 39.5817 1129.42 36 1125 36H160C155.582 36 152 32.4183 152 28V8Z" fill="#05010F"/>
<path d="M8 1H144V-1H8V1ZM1 36V8H-1V36H1ZM1 175V36H-1V175H1ZM1125 182H7.99998V184H1125V182ZM1132 44V175H1134V44H1132ZM160 37H1125V35H160V37ZM151 8V28H153V8H151ZM160 35C156.134 35 153 31.866 153 28H151C151 32.9706 155.029 37 160 37V35ZM1125 184C1129.97 184 1134 179.971 1134 175H1132C1132 178.866 1128.87 182 1125 182V184ZM-1 175C-1 179.971 3.02942 184 7.99998 184V182C4.13399 182 1 178.866 1 175H-1ZM144 1C147.866 1 151 4.13401 151 8H153C153 3.02944 148.971 -1 144 -1V1ZM1134 44C1134 39.0294 1129.97 35 1125 35V37C1128.87 37 1132 40.134 1132 44H1134ZM8 -1C3.02944 -1 -1 3.02944 -1 8H1C1 4.13401 4.13401 1 8 1V-1Z" fill="url(#paint1_linear_288_1975)" mask="url(#path-2-inside-1_288_1975)"/>
</g>
<defs>
<linearGradient id="paint0_linear_288_1975" x1="44.4444" y1="2" x2="49.6918" y2="43.4609" gradientUnits="userSpaceOnUse">
<stop stop-color="#2DA9FF"/>
<stop offset="1" stop-color="#AA05FF"/>
</linearGradient>
<linearGradient id="paint1_linear_288_1975" x1="566.5" y1="0" x2="566.5" y2="172.394" gradientUnits="userSpaceOnUse">
<stop stop-color="#3E3F43"/>
<stop offset="1" stop-color="#666666" stop-opacity="0"/>
</linearGradient>
</defs>
</svg>
