<?xml version="1.0" encoding="utf-8"?><svg version="1.1" id="Layer_1" xmlns="http://www.w3.org/2000/svg" xmlns:xlink="http://www.w3.org/1999/xlink" x="0px" y="0px" width="122.88px" height="122.88px" viewBox="0 0 122.88 122.88" enable-background="new 0 0 122.88 122.88" xml:space="preserve"><g><path d="M7.513,0h107.854c2.066,0,3.944,0.845,5.306,2.207s2.207,3.24,2.207,5.306v107.854c0,2.066-0.846,3.944-2.207,5.306 c-1.361,1.362-3.239,2.207-5.306,2.207H7.513c-2.066,0-3.945-0.845-5.306-2.207C0.845,119.312,0,117.434,0,115.367V7.513 c0-2.066,0.845-3.945,2.207-5.306S5.447,0,7.513,0L7.513,0z M35.018,38.629c0,0.924,0.353,1.848,1.057,2.553l20.164,20.164 l0.094,0.095l-0.094,0.094L36.075,81.698c-0.705,0.705-1.057,1.629-1.057,2.553s0.353,1.849,1.057,2.554 c0.705,0.704,1.629,1.058,2.553,1.058c0.924,0,1.848-0.354,2.553-1.058l20.163-20.164l0.095-0.095l0.095,0.095l20.163,20.164 c0.705,0.704,1.63,1.058,2.554,1.058s1.849-0.354,2.553-1.058c0.705-0.705,1.058-1.63,1.058-2.554s-0.353-1.848-1.058-2.553 L66.641,61.534l-0.095-0.094l0.095-0.095l20.163-20.164c0.705-0.705,1.058-1.629,1.058-2.553s-0.353-1.848-1.058-2.553 c-0.704-0.705-1.629-1.057-2.553-1.057s-1.849,0.353-2.554,1.057L61.534,56.239l-0.095,0.095l-0.095-0.095L41.182,36.076 c-0.705-0.705-1.629-1.057-2.553-1.057c-0.924,0-1.848,0.353-2.553,1.057C35.371,36.781,35.018,37.705,35.018,38.629L35.018,38.629 z"/></g></svg>