<svg width="40" height="40" viewBox="0 0 40 40" fill="none" xmlns="http://www.w3.org/2000/svg">
<circle cx="20.0001" cy="20" r="17.9615" stroke="white"/>
<mask id="mask0_210_2443" style="mask-type:alpha" maskUnits="userSpaceOnUse" x="3" y="3" width="34" height="34">
<circle cx="20" cy="20" r="16.9231" fill="#D9D9D9"/>
</mask>
<g mask="url(#mask0_210_2443)">
<ellipse cx="19.9999" cy="34.6667" rx="10.6667" ry="9.33333" fill="white"/>
<path d="M19.9963 25.8333H19.9971C21.4146 25.8339 22.8005 25.4141 23.9794 24.6269C25.1584 23.8398 26.0774 22.7207 26.6202 21.4112C27.1631 20.1017 27.3054 18.6607 27.0292 17.2703C26.753 15.8799 26.0707 14.6026 25.0685 13.6001L24.7149 13.9536L25.0685 13.6001C24.0664 12.5975 22.7894 11.9147 21.3991 11.6379C20.0088 11.3612 18.5677 11.5029 17.258 12.0453C15.9483 12.5876 14.8289 13.5062 14.0413 14.6848C13.2536 15.8634 12.8333 17.2491 12.8333 18.6667L12.8333 18.6675C12.8363 20.5665 13.5918 22.387 14.9344 23.7302C16.277 25.0733 18.0972 25.8296 19.9963 25.8333Z" fill="white" stroke="#252525"/>
</g>
</svg>
