<svg width="24" height="24" viewBox="0 0 24 24" fill="none" xmlns="http://www.w3.org/2000/svg">
<path d="M7.00089 12C7.00089 14.7613 9.23955 17 12.0009 17C14.7622 17 17.0009 14.7613 17.0009 12C17.0009 9.23867 14.7622 7 12.0009 7C9.23955 7 7.00089 9.23867 7.00089 12ZM10.9166 14.2573C10.5952 14.4343 10.3342 14.2817 10.3342 13.915V10.0853C10.3342 9.72133 10.5949 9.56567 10.9166 9.743L14.4236 11.6787C14.7442 11.856 14.7449 12.144 14.4236 12.3217L10.9166 14.2573Z" fill="black"/>
<path d="M21.4077 22.1887H2.98428V1.70898H17.5889L21.4081 6.41746V22.1887H21.4077ZM4.39756 20.7756H19.9947V6.91834L16.9151 3.12202H4.39756V20.7756Z" fill="black"/>
</svg>
