<svg width="18" height="18" viewBox="0 0 18 18" fill="none" xmlns="http://www.w3.org/2000/svg">
  <path d="M11.25 8.01562H5.625C5.47582 8.01562 5.33274 8.07489 5.22725 8.18038C5.12176 8.28587 5.0625 8.42894 5.0625 8.57812C5.0625 8.72731 5.12176 8.87038 5.22725 8.97587C5.33274 9.08136 5.47582 9.14062 5.625 9.14062H11.25C11.3992 9.14062 11.5423 9.08136 11.6477 8.97587C11.7532 8.87038 11.8125 8.72731 11.8125 8.57812C11.8125 8.42894 11.7532 8.28587 11.6477 8.18038C11.5423 8.07489 11.3992 8.01562 11.25 8.01562Z" fill="currentColor"/>
  <path d="M16.1589 15.9255L13.7171 13.4837C14.9732 12.1697 15.75 10.3944 15.75 8.4375C15.75 4.4055 12.4695 1.125 8.4375 1.125C4.4055 1.125 1.125 4.4055 1.125 8.4375C1.125 12.4695 4.4055 15.75 8.4375 15.75C10.1076 15.75 11.6443 15.1807 12.8767 14.2346L15.363 16.7209C15.4151 16.7733 15.4771 16.8149 15.5453 16.8433C15.6136 16.8717 15.6868 16.8863 15.7607 16.8863C15.8346 16.8863 15.9078 16.8717 15.976 16.8433C16.0443 16.8149 16.1063 16.7733 16.1584 16.7209C16.2639 16.6155 16.3232 16.4725 16.3233 16.3233C16.3235 16.1741 16.2643 16.0311 16.1589 15.9255ZM2.25 8.4375C2.25 5.02594 5.02594 2.25 8.4375 2.25C11.8491 2.25 14.625 5.02594 14.625 8.4375C14.625 11.8491 11.8491 14.625 8.4375 14.625C5.02594 14.625 2.25 11.8491 2.25 8.4375Z" fill="currentColor"/>
</svg>